<?xml version="1.0" standalone="no"?><!DOCTYPE svg PUBLIC "-//W3C//DTD SVG 1.1//EN" "http://www.w3.org/Graphics/SVG/1.1/DTD/svg11.dtd"><svg t="1607500024628" class="icon" viewBox="0 0 3424 1024" version="1.1" xmlns="http://www.w3.org/2000/svg" p-id="1689" xmlns:xlink="http://www.w3.org/1999/xlink" width="668.75" height="200"><defs><style type="text/css"></style></defs><path d="M1434.745 512.088l417.045-417.05c21.084-21.079 21.084-55.689 0-76.766l-2.282-2.288c-21.078-21.079-55.688-21.079-76.772 0l-417.045 417.578L938.64 15.81c-21.077-21.079-55.688-21.079-76.766 0l-2.288 2.283c-21.606 21.082-21.606 55.688 0 76.77l417.051 417.226-417.051 417.046c-21.077 21.083-21.077 55.688 0 76.771l2.288 2.283c21.078 21.083 55.689 21.083 76.766 0l417.051-417.046 417.045 417.046c21.084 21.083 55.694 21.083 76.772 0l2.282-2.283c21.084-21.083 21.084-55.688 0-76.77l-417.045-417.047z m0 0" fill="#2C2C2C" p-id="1690"></path></svg>