<?xml version="1.0" standalone="no"?><!DOCTYPE svg PUBLIC "-//W3C//DTD SVG 1.1//EN" "http://www.w3.org/Graphics/SVG/1.1/DTD/svg11.dtd"><svg t="1607500080168" class="icon" viewBox="0 0 1024 1024" version="1.1" xmlns="http://www.w3.org/2000/svg" p-id="1829" xmlns:xlink="http://www.w3.org/1999/xlink" width="200" height="200"><defs><style type="text/css"></style></defs><path d="M78.8597696 286.01379307C78.8597696 265.21233707 95.7756288 248.34942507 116.63978667 248.34942507L907.36021333 248.34942507C928.2255392 248.34942507 945.1402304 265.067312 945.1402304 286.01379307 945.1402304 306.81524907 928.2243712 323.67816107 907.36021333 323.67816107L116.63978667 323.67816107C95.7744608 323.67816107 78.8597696 306.96027413 78.8597696 286.01379307ZM78.8597696 512C78.8597696 491.198544 95.7756288 474.335632 116.63978667 474.335632L907.36021333 474.335632C928.2255392 474.335632 945.1402304 491.05351893 945.1402304 512 945.1402304 532.801456 928.2243712 549.664368 907.36021333 549.664368L116.63978667 549.664368C95.7744608 549.664368 78.8597696 532.94648107 78.8597696 512ZM78.8597696 737.98620693C78.8597696 717.18475093 95.7756288 700.32183893 116.63978667 700.32183893L907.36021333 700.32183893C928.2255392 700.32183893 945.1402304 717.03972587 945.1402304 737.98620693 945.1402304 758.78766293 928.2243712 775.65057493 907.36021333 775.65057493L116.63978667 775.65057493C95.7744608 775.65057493 78.8597696 758.932688 78.8597696 737.98620693Z" fill="#2c2c2c" p-id="1830"></path></svg>